<svg id="Layer_1" data-name="Layer 1" xmlns="http://www.w3.org/2000/svg" viewBox="0 0 725.16 617.74">
    <defs>
        <style>.cls-1{fill:none;stroke:#231f20;stroke-miterlimit:10;stroke-width:5px;fill-rule:evenodd;}</style>
    </defs>
    <title>fox</title>
    <path class="cls-1"
          d="M640,818c-175.18,1.51-368.89-126.35-360-164.23,3-41.29,62.32-50.42,67.57-87,5.08-44.8-12.62-87-20.48-127.07-13.81-83.55,4.7-191.23,17.4-228.77,9.88-16.4,24.58,7.67,28.83,9.12,46.74,44.46,110.48,95.56,139.73,150.53,11.59,16.48,27.37-3.37,42.42-8.15C584,352,611.15,344.75,639.76,345.92"
          transform="translate(-277.23 -202.77)"/>
    <path class="cls-1"
          d="M639.76,818c160.29,1.23,332.77-104.32,357.19-151,12.07-29.58-14.49-44.61-52.36-77-48.27-59.86,53.25-149-6-368.32-7.41-39.22-33.79,3.5-55.18,19.67-60.47,54-86.07,80.86-121.48,133.9-6.24,3.93-12.39.74-20-3.41-33.12-19.22-68.08-26.19-102-26"
          transform="translate(-277.23 -202.77)"/>
</svg>