<svg id="Vector" xmlns="http://www.w3.org/2000/svg" width="2700" height="2700" viewBox="0 0 2700 2700">
    <defs>
        <style>
            .cls-1 {
            fill: #ffd1d7;
            }

            .cls-1, .cls-2, .cls-3, .cls-4 {
            fill-rule: evenodd;
            }

            .cls-2 {
            fill: #1c1c1c;
            }

            .cls-3, .cls-4 {
            fill: #fff;
            }

            .cls-4 {
            opacity: 0.54;
            }
        </style>
    </defs>
    <path id="new_vector_shape_done" class="cls-1"
          d="M2250,1190c-1.64,9.38-12.37,14.03-13.5,24,4.84,4.63,4.22,10.95,6.5,18.5,0.86,2.86,3.07,5.4,4,8a14.992,14.992,0,0,1,0,8.5c-1.51,4.08-7.08,5.9-8,9,3.53,2.21,8.59,6.78,10,11,3.21,9.59-5.22,16.24-14.5,16,0.59,5.4,3.76,10.48,5.5,15,3.84,10,5.87,19.73,10,29.5,3.44,8.14,8.58,16.02,10,26-2.23,1.36-3.23,3.14-6.5,3.5-2.28-4.99-6.26-9.25-8.5-14-1.34-2.83-.05-5.23-3.5-6-3.3,3.91-10.77,4.01-16,6-7.83,2.98-16.6,6.99-24.5,10-5.27,2.01-9.87,2.83-15,5-15.12,6.4-31.42,13.08-47,19-8.87,3.37-17.32,5.2-26,9-5.89,2.58-12.63,5.38-18.5,8-2.47,1.1-4.63.83-7,2a127,127,0,0,1-13,6c-2,.33-4,0.67-6,1-10.09,3.77-20.34,9.59-30.5,13-2.38.8-3.95,0.16-6,1-72.18,29.69-145.95,55.8-220,84-21.33,8.12-42.91,18.03-64,26-12.25,4.63-23.52,7.52-35.5,12-5.74,2.15-11.28,6.08-17,8-2.65.89-4.99-1.44-6.5-2-4.89-1.82-10.6-2.61-15.5-4-5.93-1.69-11.63-1.19-18-3-13.33-3.78-28.54-6.91-42-11-9.92-3.02-20.34-4.34-30.5-7-4.61-1.21-8.18-.54-12.5-2-18.24-6.15-39.18-9.42-58.5-15-5.91-1.71-11.06-1.28-17-3-8.37-2.42-17.66-3.33-26.5-6-10.22-3.09-21.4-6.21-31.5-9-3.17-.33-6.33-0.67-9.5-1-11.71-3.5-25.31-6.63-37-10-5.18-1.49-10.9-.4-15.5-2.5-0.96-.44-1.27-2.13-2-2.5h-46c-0.5.67-1,1.33-1.5,2H1321c-5.19,1.45-11.4,3.45-16.5,5-7.75,2.35-16.22,2.8-23.5,5-8.99,2.72-18.51,2.24-28,5-44.35,12.88-95.57,20.16-140,33-11.96,3.46-24.99,3.5-36.5,7-16.83,5.12-36.11,6.57-53,12-5.17,1.66-14.94,6.46-21.5,4-3.782-1.42-7.538-4.66-11.5-6-21.224-7.16-40.31-15.35-60-24-13.7-6.02-27.477-9.65-41.5-15-10.938-4.17-22.258-9.58-33-14-6.3-2.59-12.167-3.11-18-6-6.963-3.45-15.164-7.27-22.5-10-2-.33-4-0.67-6-1-3.151-1.12-7.031-3.53-10-5-2.23-1.11-4.27-.89-6.5-2-9.444-4.68-20.541-9.22-30.5-13-46.815-17.79-91.213-35.38-138-53-5.692-2.14-11.814-5.59-17.5-8-19.105-8.11-38.7-14.8-57-23-4.6-2.06-9.173-2.17-14-4-6.77-2.57-13.832-6.17-20.5-9-4.955-2.1-9.454-2.8-14.5-5-8.818-3.84-19.183-6.65-28-11-4.867-2.4-10.474-6.02-16.5-7-1.771,5.23-7.069,19.45-12.5,20-1.462-2.09-3.42-2.39-4-5.5,2.525-2.16,2.2-6.02,3.5-9.5,2.539-6.82,4.761-13.8,7.5-21,6.138-16.13,14.288-31.95,19-49v-51c-1.434-4.23-8.3-12.45-11-16.5-2.746-4.12-6.483-15.51-11.5-16.5-1.742,3.47-10.329,12.24-14.5,13-1.994-13.69-5.65-28.05-9-40.5-1.169-4.34.159-8.15-1-12-5.663-18.8-8.611-40.74-14-59.5-3.156-10.99-1.85-22.85-5-34-12.024-42.58-19.144-92.129-30-136V886.5c-1.968-8.8-1-21.58-1-32,0-4.984-.943-8.1-1-12.5-0.147-11.279,1.287-19.209-1-29-0.42-1.8.277-4.478,0.5-5.5,0.916-4.207-.769-9.518-1.5-12.5-1.95-7.957,2.819-14.526,1-22-1.011-4.155-2.224-13.345-1-19,0.332-1.534,1-5.186.5-7.5-1.724-7.936-.494-19.131-0.5-28,0-5.959-1-9.395-1-15.5V679c-1.43-6.344-1.263-16.1-1-24q0.25-3.249.5-6.5c-1.7-7.837-1.5-18.593-1.5-28.5V597.5c-0.82-3.446-3.286-9.241-2-14,2.326-8.608,4.613-19.5,7-28.5,1.6-6.015-.523-12.167,1-17.5,5.747-20.115,6.713-45.115,12-65q0.25-5.75.5-11.5c1.2-5.183,2.261-11.478,3.5-16.5v-10c1.111-4.79.556-11.327,2-16.5,4.747-17.007,6.9-37.619,11-55q0.5-9.749,1-19.5c4.586-19.11,5.192-39.95,10-58.5,1.059-4.087,1.16-7.789,2-11.5v-7c1.251-5.232,2.813-11.254,4-16.5q-0.25-4-.5-8c0.932-3.807,3.972-8.078,6.5-10.5-0.6-1.634-1.032-1.139-1.5-3,4.991-2.742,7.385-9.322,10.5-14,5.5-8.253,12.5-15.759,18-24,2.787-4.177,4.989-13.809,11-14.5,2.678,5.05,4.344,2.085,9.5,4,4.582,1.7,7.77,6.182,11.5,9,5.329,4.027,10.337,10.345,16,14.5,4.787,3.513,11.061,6.7,14.5,11.5a21.456,21.456,0,0,1,2.5,5.5V225c0.907,2.006,4.455,4.342,6,6,2.98-.074,5.493-1.156,8,0,3.114,1.435,5.88,5.385,8,8,3.582,4.417,8.91,7.561,13.5,11l2.5,3c6.18,4.663,11.424,10.44,17.5,15,2.813,2.111,5.887,3.679,8.5,6,3.977,3.532,6.735,8.791,11,12,8.074,6.075,15.945,11.965,24,18,3.183,2.384,5.837,6.11,9,8.5,10.083,7.619,18.438,16.9,28.5,24.5l4.5,5c14.11,10.674,26.656,22.817,41,33.5,3.14,2.339,4.923,6.664,8,9,5.5,4.175,10.486,8.356,16,12.5l5,6c20.166,15.361,38.161,32.351,58.5,47.5l11,12c4.406,3.283,8.621,6.212,13,9.5,2.61,1.96,4.2,5.206,6.5,7.5,2.425,2.419,5.705,3.949,8.5,6,5.766,4.232,10.735,9.644,16.5,14,4.473,3.379,10.061,9.948,13.5,14.5,3.862,5.111,9.649,9.32,13.5,14.5,5.111,6.874,9.857,13.63,15,20.5,1.9,2.538,5.1,4.482,7,7,4.577,6.067,9.577,11.981,14,18,18.361,24.988,38.377,48.142,57,73,6.151,8.21,14.883,14.678,21,23,6.382,8.683,13.853,16.374,20,25,2.83,3.977,3.39,10.333,9.5,11,0.78,0.621.26,0.321,1,0,2.31-.768,3.92-2.951,6-4,2.36-1.187,4.56-.875,7-2a72.442,72.442,0,0,0,6.5-4c4.81-2.933,10.05-4.3,15-7,4.04-2.2,7.42-6.538,12-8h10c5.54-1.391,11.23-3.675,17.5-4,1.94-3.078,3.51-7.475,6.5-9.5,5.46-3.7,15.15-2.17,22.5-4,14.32-3.565,29.5-6.267,42.5-10.5,4.26-1.387,10.15-1.067,13.5-3.5,1.07-1.867-.69-3.765,0-6.5,0.8-3.163,3.08-6.9,5.5-8.5,7.15-4.737,21.32-1.233,31-3.5,9.55-2.237,21.64-1.72,31.5-4,5.26-1.216,11.01.028,15.5-1h8.5c6.1-.044,17.3.27,21-0.5L1309,626c2.1-.592,4.74-2.377,7-3h18.5c4.99-1.516,16.24-5.25,24.5-3,2.81,0.764,6.08,2.282,9,3,4.51,1.107,9.51.089,13.5,1H1392c6.65,0,13.53-.25,19,1h13c5.7,1.294,13.91.715,19.5,2h9c5.66,1.306,12.3.521,18.5,2,5.11,1.218,11.32.611,17,2,17.24,4.214,35.9,4.257,52.5,9,36.37,10.391,72.56,20.2,106,34,12.27,5.064,24.54,9.112,37.5,14,5.39,2.033,11.3,5.594,17.5,6.5,4.19-6.506,10.44-11.85,15-18,3.62-4.879,6.86-9.611,10.5-14.5q5.505-5.25,11-10.5c9.37-12.393,19.81-24.215,29-36.5,24.77-33.128,52.28-64.26,77.5-97,2.1-2.729,5.9-4.691,8.5-7,2.3-2.046,4.05-5.149,6.5-7,7.54-5.693,14.84-11.3,22.5-17q6.255-6.5,12.5-13c28.1-20.5,51.7-45.176,79.5-66,11.76-8.812,22.25-21.153,34-30,7.08-5.328,13.87-10.647,21-16q3.255-3.5,6.5-7a120.721,120.721,0,0,1,13-11c4.01-3.029,6.97-7.96,11-11,6.05-4.561,12.31-8.483,18.5-13q3.495-4,7-8c1.45-.99,3.12-1,4.5-2,1.68-1.217,2.45-3.689,4-5,6.1-5.169,13.12-9.165,19.5-14,3.81-2.884,6.09-8.147,10-11,8.19-5.98,15.07-13.076,23-19,6.2-4.629,12.39-9.346,17-15.5,4.7-6.278,9.31-12.273,14-18.5,1.9-2.519,5.09-4.465,7-7,3.06-4.074,6.39-9.052,10.5-12,4.48-3.207,6.95-.892,12.5-2.5,2.99-.868,7.39-4.1,10-6q4.005-4.25,8-8.5c1.74-1.295,5.1-2.526,6-4.5v-5c1.54-5.622,7.14-13.082,16.5-10.5,11.61,3.2,8.39,17.2,11.5,29,1.97,7.479,2.91,18.524,6,25.5,1.48,3.345,8.77,11.7,11.5,14.5-0.6,1.634-1.03,1.139-1.5,3,3.44,2.379,5.8,7.513,7,12v11c2.7,10.137,4.08,22.716,6.5,33v9.5c6.9,29.657,8.86,65.6,16.5,94.5v10.5c1.18,4.714,2.73,10.912,4,15.5,1.74,6.306,1.18,14.11,2.5,20v9c1.32,5.7,2.16,12.453,3.5,18.5v7c2.48,9.933,4.6,21.266,7,31.5,1.59,6.774-.7,13.171,1,19.5,1.95,7.234,3.14,16.3,5,24q1.005,8.5,2,17c3.11,12.7,6.2,22.845,3,37-1.13,5.019-.42,14.255.5,18.5,1.7,7.795-.75,23.95-2,30-0.3,1.471.38,2.7,0.5,3.5V686c-2.18,9.637-.97,23.694-1,35q-0.495,8.249-1,16.5c0,6.806.77,12.153-.5,18V772c0,9.043-1.39,19.209.5,27,1.06,4.374-.81,8.932-1.5,12-0.57,2.529.39,5.052,0.5,7a63.6,63.6,0,0,1-1.5,17v14q-0.255,11-.5,22c0,7.744.5,17.331-1,23.5v27c-4.4,17.682-8.4,37.2-13,54.5v9c-2.68,10.677-5.3,22.88-8,33.5q-0.495,6-1,12c-4.68,16.89-7.9,36.92-13,54-2.18,7.3-.99,15.2-3,23-4.91,19.12-8.6,40.48-14,60-3.34,12.08-3.04,25.09-7.5,36h-1C2263.16,1199.83,2254.94,1190.52,2250,1190Z"/>
    <path id="Vector_Tophead" class="cls-2"
          d="M451,147c22.1-.42,36.669,6.7,50,15,9.817,6.11,18.1,12.28,27,19l15.5,16.5c10.136,9.027,20.092,18.3,31,26.5,4.6,3.461,8.4,8.536,13,12,19.473,14.659,36.1,32.357,55.5,47,6.154,4.645,10.855,11.854,17,16.5,9.5,7.185,17.638,16.137,26,24.5l13,12.5A153.761,153.761,0,0,0,713,352l6,5.5c5.448,7.211,12.487,13.8,19,20,30.691,29.206,62.061,57.558,92,87.5,14.118,14.119,29.386,27.965,41.5,44,2.326,3.079,6.168,5.417,8.5,8.5,8.627,11.409,19.469,21.134,28,32.5,9.193,12.249,19.2,24,28,36.5,10.968,15.581,20.906,32.264,31,48.5,5.99,9.635,11.159,19.578,17,29,2.017,3.253,3.539,9.319,7,11,3.107,2,17.25-3.765,20-5,13.31-5.97,26.47-13.209,39-20,5.21-2.822,10.22-4.269,15.5-7,42.07-21.769,93.45-33.17,142.5-48,5.96-1.8,11.24-1.364,17.5-3,10.78-2.817,23.11-4.229,34-7,9.11-2.319,18.91-.94,28-3,3.88-.879,9.23.239,12.5-0.5,8.32-1.882,18.8,1.246,26.5-.5H1342c9.91,0,22.56-1.51,31.5.5h10c9.68,0,20.43-.937,29,1l13,0.5c12.53,2.956,26.35,3.786,38,7,5.27,1.455,9.3.623,14.5,2,35.96,9.517,70.16,17.974,103,30,11.52,4.22,22.7,6.284,33.5,11,14.87,6.49,29.6,14.489,43.5,22,7.16,3.866,14.27,6.27,21.5,10,7.16,3.693,20.33,11.816,30.5,10,1.26-4.27,4.82-7.959,7-11.5,4.53-7.355,8.57-14.89,13-22,11.6-18.616,21.61-37.359,34-55,10.31-14.675,22.26-28.186,33-42.5,2.52-3.364,6.46-6.132,9-9.5,8.39-11.132,18.62-20.415,27-31.5l6-5.5c10.43-13.792,23.85-25.354,36-37.5,28.27-28.267,58.02-54.936,87-82.5,6.51-6.195,13.55-12.79,19-20l6-5.5a153.281,153.281,0,0,0,14-15.5q4.995-4.749,10-9.5c7.45-7.448,14.53-15.6,23-22,4.39-3.318,7.62-8.686,12-12,13.7-10.359,25.24-23.125,39-33.5,8.26-6.23,15.2-14.769,23.5-21,16.73-12.549,30.92-27.967,47.5-40.5q7.995-8.5,16-17c12.18-9.208,24.15-18.923,38.5-26,9.44-4.657,29.95-10.976,44-7a52.791,52.791,0,0,1,29,20c9.12,12.955,12.65,29.452,17.5,47,2.33,8.442,1.79,16.05,4,24.5,8.3,31.754,11.31,66.088,20,97.5,0.94,3.39.11,5.594,1,9,1.91,7.324,3.12,16.588,5,24v4c5.19,20.372,5.13,43.837,10,65,1.41,6.142.76,12.5,2,18v6c1.79,8.034,1.2,18.352,3,26.5v8c2.39,10.883.59,24.48,3,35.5q0.255,9.249.5,18.5c0.68,3.111-.31,8.267.5,12,3.6,16.516-.62,36.436,3,53v13c3.71,17.137-.78,37.669,3,55v18c1.11,5.182-.74,12.692.5,18.5,0.93,4.331.5,10.835,0.5,16v30c0,11.478,1.8,26.029-.5,36.5-1.06,4.841.43,11.278-.5,15.5v13c-1.08,7.2-.47,16.59-2,23.5v8c-1.96,8.665-.81,18.435-3,27.5-5.88,24.34-9.13,48.819-16,71.5-1.88,6.2-1.9,11.807-4,18-7.09,20.94-10.75,43.3-18,64.5-8.44,24.68-15.71,50.13-23,75.5-5.65,19.65-6.27,40.9-11,61.5-2.36,10.29-.82,21.45-3,31.5v12c-1.23,5.86-1.29,17.14,0,23V1259c1.28,5.74.52,12.31,2,18.5,2.04,8.55,2.43,18.07,5,26.5,3.94,12.95,10.5,24.55,17.5,34.5,22.65,32.2,55.11,56.57,86.5,80,12.56,9.38,23.46,21.03,36,30.5,5.13,3.88,8.87,10.13,14,14,5.43,4.11,9.52,8.96,14,14,2.2,2.48,5.51,4.36,7.5,7,12.09,15.99,24.24,30.24,32.5,50.5,1.82,4.47,2.85,9.93,4,14.5,2.98,11.9,1.08,29.97-2,39.5-9.89,30.63-25.58,51.16-49,68-8.13,5.84-15.54,11.65-25,16.5-3.2,1.64-9.06,4.48-15,3-15.2-3.78-25.88-20.77-14.5-36.5,4.96-6.85,15.03-10.61,22-15.5,14.95-10.49,30.06-25.69,36.5-44.5,3.44-10.04,2.06-24.72-2-33-8.41-17.13-20.73-30.24-33.5-43-5.71-5.7-10.99-11.58-17.5-16.5-4.85-3.67-8.63-9.33-13.5-13-12.76-9.64-24.26-20.98-37-30.5-45.47-33.98-90.13-70.42-107.5-132.5-3.16-11.31-3.35-23.81-6-35.5-1.53-6.72.47-12.53-1-19.5-1.35-6.38-1.93-19.99-.5-26.5v-10c0.07-5.58.4-13.06,1.5-18V1194c3.34-14.64,2.26-30.48,6-45,2.94-11.42,3.62-23.91,7-35.5,5.9-20.22,11.4-40.28,18-59.5,7.09-20.65,11.17-42.16,18-62.5,2.03-6.054,1.95-11.418,4-17.5,9.45-28.028,13.78-58.553,21-89,3.15-13.281,1.07-28.605,4-42V833c2.33-10.781,1.5-24.64,1.5-36.5v-13c1.77-8.287,1.25-34.263,0-41V715c-1.16-5.336.8-13.042-.5-19-0.78-3.587.42-9.292-.5-13.5-0.82-3.746.45-9.633-.5-14-2.96-13.561.49-29.87-2.5-43.5q-0.255-11.249-.5-22.5c-1.42-6.49.58-14.307-1-21.5-1.42-6.489.58-14.309-1-21.5-2.88-13.083-.15-29.066-3-42q-0.495-11-1-22c-3.2-14.308-1.78-31.071-5-45-1.14-4.936.14-8.628-1-13.5-3.19-13.6-2.6-28.669-6-42.5-7.11-28.942-9.52-59.5-17-87.5l-3-18c-6.02-22.314-7.75-47.131-14-69.5-2.33-8.331-4.09-26.282-13.5-26.5-3.78,2.541-9.06,2.876-13,5-6.84,3.689-13.32,8.46-19.5,13-10.73,7.877-18.96,20.156-30,28.5-1.33,1.5-2.67,3-4,4.5-20.7,15.662-38.74,34.368-59.5,50-8.79,6.616-16.12,15.293-25,22-10.94,8.259-19.5,19.685-30.5,28q-6.255,6.5-12.5,13c-12.25,12.25-24.29,24.708-36.5,37-3.15,3.169-5.66,7.028-9,10-9,8.013-17.05,17.029-26,25-26.02,23.164-51.54,46.784-75.5,72-12.86,13.533-27.15,25.98-38.5,41-2.33,3.079-6.17,5.417-8.5,8.5-11.39,15.058-25.45,28.186-36.5,43.5-16.13,22.349-31.29,45.579-46,69.5-12.74,20.721-21.39,48.736-47,56.5-13.89,4.21-30.69-.148-41-4-28.93-10.808-53.01-24.836-79.5-38-12.77-6.343-26.68-9.227-41-14-24.12-8.042-49.21-15.664-74.5-23-13.91-4.035-28.25-4.224-42.5-8-9.59-2.542-21.36-2.619-32-5H1399c-7.8-1.68-26.92-1.479-33.5,0H1348c-7.4,0-14.73-.133-21,0-7.45.158-18.56-1.675-26,0h-13.5c-5.76,1.3-12.9.427-19,2-17.86,4.6-37.79,5.815-55.5,11-56.23,16.464-112.53,32.144-158,59-5.65,3.337-11.51,5.021-17.5,8-16.41,8.17-46.255,20.5-68.5,9-18.026-9.317-25.491-31.567-36-48.5-11.843-19.083-23.182-38.751-36-57-9.349-13.311-20.256-25.494-30-38.5-7.1-9.475-16.3-17.463-23.5-27l-4.5-4c-7.208-9.53-16.15-17.185-24-26a545.169,545.169,0,0,0-45-45c-3.174-2.82-5.622-6.944-9-9.5-12.617-9.545-24.1-21.923-36-32.5-4.192-3.726-7.432-8.049-12-11.5l-6-6.5c-4.719-4.72-9.542-8.984-14-14-7.968-8.966-17.7-16.333-25-26l-9.5-9c-6.078-6.078-11.578-12.77-18.5-18-5.127-3.874-8.862-10.112-14-14-13.215-10-24.221-22.481-37.5-32.5l-3-3.5c-8.5-6.415-16-13.6-24.5-20-2.15-1.619-3.851-4.379-6-6a472.76,472.76,0,0,1-49-43c-10.2-10.2-31.05-31.47-49.5-32-1.286,1.8-3.433,3.467-4.5,5.5-4.932,9.4-6.1,22.33-9,33.5-1.317,5.072-.671,8.931-2,14-6.58,25.093-9.1,52.713-16,77.5-1.35,4.851-.643,8.651-2,13.5-7.412,26.487-8.382,56.825-15,84.5-2.5,10.44-1.7,21.969-4,32v6c-2.5,11.074-1.5,24.686-4,36v8c-3.761,17.151-.2,38.609-4,56q-2,49.5-4,99c-1.569,7.25.728,16-1,24-0.775,3.588.408,9.288-.5,13.5-1.368,6.349-.969,16.394-1,23v23.5c-1.26,6.461-1.762,32.978,0,41,1.692,7.7-1.057,17.418.5,24.5v14c0.464,8.333.27,19.169,2,27v8.5c1.97,8.713.811,18.446,3,27.5,3.931,16.259,5.37,32.632,10,48.5,6.721,23.037,11.661,47.614,19,70,1.865,5.69,2.025,10.73,4,16.5,10.481,30.63,18.918,61.9,28,93.5,3.336,11.61,4.112,24.06,7,35.5l1,10c2.578,10.73,2.511,23.83,5,35,1.713,7.69-.663,14.6,1,22.5,1.4,6.65,1.977,21.3.5,28v9.5q-0.75,10.755-1.5,21.5c-3.372,14.55-3.424,30.04-8,43.5-5.1,15.01-11.821,29.68-20,42-23.524,35.43-61.945,65.79-96,91-12.391,9.17-23.167,20.68-35.5,30-3.829,2.89-6.677,7.61-10.5,10.5a112.112,112.112,0,0,0-21,21c-3.807,5.04-9.274,9.3-13,14.5-4.422,6.17-9.216,13.6-12,21-12.487,33.18,17.267,62.18,35.5,75,8.4,5.91,19.684,10.09,24.5,19.5,7.867,15.38-6.787,36.92-24.5,32.5-12.588-3.14-21.294-11.37-30.5-18-23.978-17.27-40.987-37.97-51-69.5-4.056-12.77-4.4-35,0-48,2.676-7.9,5.82-16.64,10-23.5,7.286-11.95,16.272-22.11,24.5-33,1.992-2.64,5.3-4.53,7.5-7,4.485-5.04,8.567-9.9,14-14q3.249-3.495,6.5-7c4.108-3.65,8.082-7.16,12.5-10.5,3.918-2.96,7.067-7.55,11-10.5,11.195-8.41,21.3-18.27,32.5-26.5,29.6-21.75,58.821-45.27,78.5-77,6.592-10.63,11.187-22.16,15-36,2.333-8.47,2.108-17.67,4-26q0.25-5.25.5-10.5c1.564-7.28,1-16.16,1-24.5v-9c-2.457-11.1.041-23.92-2.5-35-1.666-7.26-1.121-15.28-3-23-3.768-15.48-4.571-31.82-9-47-4.778-16.38-9.62-32.83-15-48.5-3.925-11.43-6.072-23.08-10-34-2.844-7.9-3.272-15.43-6-23.5-5.319-15.728-9.109-33.407-14-49.5-7.292-24-10.029-48.809-16-74-2.153-9.081-1.076-18.823-3-27.5v-8c-1.506-6.917-.918-16.3-2-23.5V819c-0.911-4.225.543-10.65-.5-15.5-2.259-10.508-.5-24.994-0.5-36.5V737c0-5.157-.447-11.68.5-16,1.27-5.8-.634-13.324.5-18.5v-18c3.693-16.947-.682-38.2,3-55v-13c3.622-16.562-.622-36.492,3-53v-12c2.74-12.459.3-27.738,3-40v-9c1.98-8.915,1.031-20.2,3-29V467c1.352-6,.455-12.849,2-19.5,4.118-17.724,3.814-37.774,8-55q0.5-5.25,1-10.5c2.35-9.17,2.479-19.357,5-29,8.754-33.487,11.788-69.728,21-103,1.394-5.036.682-8.94,2-14,6.463-24.811,8.823-49.979,21.5-68A54.243,54.243,0,0,1,439,150C442.5,148.532,447.862,149.062,451,147ZM994,932c50.67-.572,76.04,45.025,91.5,80.5,8.07,18.51,13.55,39.19,19.5,60.5q3,16.995,6,34c2.87,12.22.75,26.14,3.5,38.5v9c0.95,4.49.5,11.18,0.5,16.5,0,9.29.76,19.5-1,27.5-1.62,7.38.62,13.87-1,21-3.93,17.25-3.4,35.18-8,51.5-8.89,31.54-16.88,60.81-32,85.5-16.7,27.27-31.84,47.36-68,55.5-15.182,3.42-33.478-6.97-41-12-30.7-20.51-47.194-55.56-60-94-5.157-15.48-8.639-32.93-13-50-2.268-8.87-2.017-18.32-4-27q-0.5-7.995-1-16c-3.08-14.24-1-38.08-1-54.5-0.017-84.23,22.694-149.43,59-197.5,6.568-8.7,21.822-19.865,32.5-24.5l11-3.5C989.805,932.385,992.293,933.085,994,932Zm701,0c48.59-.549,74.65,42.151,89.5,76,5.59,12.75,10.88,26.88,15.5,41,4.09,12.51,5.69,26.06,9,39,3.9,15.26,2.47,32.16,6,48v58.5c0.01,34.22-5.89,69.97-14.5,96.5-7.53,23.21-12.96,43.12-24.5,62-17.78,29.08-31.41,50.31-70,59-3.14.71-8.64,0.05-11-.5-3.94-.92-6.98-0.36-10.5-1.5-8.91-2.9-16.2-7.61-23-12.5-31-22.27-45.69-59.33-59-99.5-4.3-12.98-6.9-27.9-10.5-42-2.27-8.87-2.02-18.32-4-27-1.61-7.02-.54-14.48-2-21v-9.5c-1.69-7.9-1-17.84-1-27,0-8.83-.67-18.41,1-26q0.255-7.245.5-14.5c3.22-14.26,1.94-29.22,5.5-43,4.66-18.07,6.84-37.02,13.5-53.5,5.88-14.56,10.65-30.09,18.5-43a365.58,365.58,0,0,1,21-30.5c6.57-8.7,21.82-19.865,32.5-24.5l11-3.5C1690.81,932.385,1693.29,933.085,1695,932Z"/>
    <path id="Vector_Eyeshine" class="cls-3"
          d="M1023,951c22.47-.105,30.8,14.449,37.5,30,18.28,42.4,13.48,125.56-28.5,138-6.05,1.79-12.39-1.36-15.5-3-12.77-6.72-18.34-18.08-24-32-14.612-35.95-9.41-90.611,9.5-117.5a46.8,46.8,0,0,1,12.5-12C1016.95,952.987,1020.85,952.859,1023,951Zm645,0c22.47-.106,30.8,14.45,37.5,30,18.29,42.43,13.52,125.55-28.5,138-6.05,1.79-12.39-1.36-15.5-3-12.77-6.72-18.34-18.08-24-32-14.58-35.88-9.37-90.669,9.5-117.5a46.8,46.8,0,0,1,12.5-12C1661.95,952.987,1665.85,952.859,1668,951Z"/>
    <path id="Vector_Earfluff" class="cls-4"
          d="M501,398c6.136,0.031,9.935,3.777,14,6,7.892,4.316,15.225,8.4,22.5,13,10.141,6.412,20.326,11.662,30.5,18,16.008,9.972,32.066,20.927,48,31,39.856,25.2,81.448,48.2,119.5,75,7.678,5.409,14.555,12.415,22,18,37.093,27.826,69.542,66.482,95.5,105.5,5.833,8.768,12.818,17.705,18,27,5.318,9.539,9.744,18.736,15,28.5,3.574,6.64,12.734,20.475,13.5,28.5-7.016,1.764-18.368,9.753-24.5,13.5-8.462,5.171-17.117,8.781-25.5,14-9.145,5.693-18.448,12.268-27.5,18-57.115,36.168-111.08,76.6-155,126-11.09,12.473-23.852,23.565-34,37-2.33,3.085-6.173,5.422-8.5,8.5-12.987,17.176-29.295,31.533-43.5,47.5-9.168,10.31-18.441,21.64-29.5,30-6.994,5.28-19.269,22.65-29.5,23a9.156,9.156,0,0,1-.5-3c3.015-4.49,3.951-10.29,6.5-15a288.16,288.16,0,0,0,17-38.5c3.381-9.28,4.49-19.876,7-29.5,1.459-5.594.535-10.322,2-16,4.233-16.4,4.3-34.459,9-50.5,11.677-39.895,26.594-77.118,48-107.5,7.813-11.089,18.106-20.013,27-30,9.739-10.935,19.615-21.714,30-32,4.972-4.924,21.852-11.68,22-19.5-15.58-8.7-44.277-6.5-68-6.5H599a316.088,316.088,0,0,1-36.5-11c-12.722-4.6-26.761-6.478-40-10-11.986-3.189-25.067-3.147-37-6-5.186-1.24-13.745.5-15.5-4,3.835-2.369,7.468-5.8,11.5-8,29.257-15.965,62.43-27.578,96-39,9.633-3.277,18.814-4.181,29-7,16.975-4.7,52.732-9.733,73-4,12.173,3.443,23.332,7.562,32.5,14,4.6,3.227,13.943,13.941,19,15-0.285-7.67-8.45-16.685-12-22-8.839-13.234-17.792-25.707-27-38.5-3.24-4.5-7.724-8.549-11-13-9.588-13.029-20.334-24.665-30-37.5-4.78-6.347-11.13-11.556-16-18-4.442-5.877-11.1-10.491-16-16a399.067,399.067,0,0,0-33-33c-4.018-3.572-7.118-7.689-11.5-11-4.942-3.734-8.555-9.762-13.5-13.5-16.218-12.261-29.277-28.241-45.5-40.5-5.538-4.185-9.5-10.715-14.5-15.5V398Zm1697,0a2.436,2.436,0,0,1-.5,1.5c-1.72,4.93-10.87,12.378-15,15.5-3.82,2.888-6.66,7.6-10.5,10.5-12.12,9.154-21.89,20.854-34,30-4.95,3.737-8.56,9.766-13.5,13.5-10.13,7.651-18.58,17.583-27.5,26.5-31.43,31.435-61.41,64.212-88,100.5-10.05,13.71-20.38,27.034-30,41.5-3.74,5.63-10.48,12.247-11,20.5h1.5c2.73-3.795,7.74-6.684,11.5-9.5,9.82-7.356,17.35-13.028,30.5-17.5,7.1-2.416,13.88-1.733,22-3.5,4.57-.994,18.73-1.7,24-0.5s11.4,0.612,17,2c10.86,2.693,22.48,3.431,33,7,43.75,14.839,86.56,27.84,121.5,51v1c-0.33.167-.67,0.333-1,0.5-3.77,2.524-9.28,1.224-14.5,2.5-10.22,2.5-21.51,2.243-32,5-14.96,3.932-30.78,5.827-45,11a308.229,308.229,0,0,1-36.5,11h-24c-17.03,0-36.21-1.365-50.5,2-6.9,1.624-16.39-.324-16.5,8,16.51,10.945,32.18,23.863,44,39.5,2.41,3.193,6.33,5.5,9,8.5,8.7,9.784,18.41,19.249,26,30,19.39,27.466,33.13,61.212,45,96,7.17,21.019,7.43,45.867,13,68.5,2.07,8.41,1.6,16.028,4,24,4.01,13.34,7.15,27.19,13,39,4.12,8.31,13.87,21.77,14.5,32a10.567,10.567,0,0,1-3.5.5c-2.87-2.75-6.8-4.61-10-7-6.07-4.53-10.53-11.49-16.5-16-4.92-3.72-8.7-8.2-13-12.5-1.83-1.67-3.67-3.33-5.5-5-3.59-4.75-8.12-8.14-12-12.5-11.24-12.64-23.78-24.473-34-38-2.33-3.085-6.17-5.422-8.5-8.5-12.7-16.8-28.61-30.882-42.5-46.5-33.86-38.058-74.36-71.328-116.5-101-27.77-19.55-57.28-36.9-86.5-55-6.81-4.216-14.15-7.8-21-11.5-2.93-1.584-7.88-2.135-8.5-6,3.05-3.9,4.16-9.462,6.5-14,5.83-11.315,11.36-23.13,18-34,15.61-25.535,32.53-49.1,50-72.5,6.04-8.086,13.87-14.89,20-23l9-8.5c9.42-12.456,25.86-26.032,38.5-35.5,4.79-3.587,9.15-8.433,14-12,13.96-10.261,28.31-20.707,43-30,27.9-17.654,56.65-33.44,84.5-51,15.95-10.053,32-21.021,48-31,10.17-6.343,20.34-11.612,30.5-18C2169.15,412.191,2188.04,398.417,2198,398Z"/>
</svg>
