<!--?xml version="1.0" encoding="utf-8"?-->
<!-- Generator: Adobe Illustrator 22.1.0, SVG Export Plug-In . SVG Version: 6.00 Build 0)  -->
<svg version="1.1" id="_x30_" xmlns="http://www.w3.org/2000/svg" xmlns:xlink="http://www.w3.org/1999/xlink" x="0px" y="0px" viewBox="0 0 600 579.936" xml:space="preserve">
<g>
	<path d="M564.597,491.902c-10.461-8.43-19.653-18.521-30.507-26.349c-7.79-5.619-17.355-8.822-26.231-12.877
		c-10.227-4.671-21.093-8.197-30.729-13.845c-12.844-7.528-25.717-14.49-40.568-18.045c12.855-3.171,25.71-5.794,38.644-7.946
		c6.659-1.108,13.478-2.052,20.187-1.848c7.342,0.224,14.758,1.365,21.92,3.048c4.97,1.168,9.75,0.222,12.727-2.558
		c5.578-5.208,10.74-11.279,14.539-17.876c5.338-9.269,3.706-16.056-4.755-20.504c-7.144-3.754-14.138-8.564-23.145-7.79
		c-4.024,0.346-8.213-1.165-12.323-1.867c-3.453-0.59-6.899-1.741-10.346-1.737c-7.381,0.009-13.226-2.133-16.785-9.074
		c-1.946-3.796-5.315-5.814-9.56-4.929c-4.216,0.879-3.58,4.881-4.025,7.94c-1.767,12.133-1.72,12.166-13.564,15.159
		c-2.175,0.549-4.423,0.835-6.651,1.144c-12.124,1.683-24.285,3.136-36.372,5.051c-13.28,2.104-26.493,4.623-40.163,7.037
		c0.446-7.421,0.586-14.808,1.528-22.092c0.255-1.974,2.661-4.816,4.54-5.246c10.301-2.355,20.824-5.971,31.121-5.542
		c12.447,0.519,19.404-5.275,26.311-14.105c-5.319-4.539-10.962-6.945-17.128-6.993c-10.587-0.082-21.18,0.597-31.773,0.875
		c-4.351,0.114-8.707,0.019-12.666,0.019c0-7.179,0-12.906,0-18.239c4.01-1.49,7.273-2.616,10.47-3.905
		c9.987-4.028,18.452-11.369,29.346-13.444c10.25-1.952,18.926-7.794,27.432-13.02c10.767-6.616,22.49-12.681,29.594-24.067
		c5.589-8.956,11.117-17.953,16.895-26.786c1.521-2.325,3.624-4.448,5.884-6.075c5.112-3.682,8.696-8.241,10.954-14.198
		c2.676-7.06,2.88-8.398-2.573-13.413c-7.198-6.618-15.815-11.078-25.044-13.904c-6.872-2.104-14.169-2.794-21.245-4.266
		c-12.707-2.645-12.668-2.633-25.04,3.198c-1.217,0.574-3.056-0.175-4.683-0.316c1.784-7.059,1.784-7.059-3.85-10.757
		c-9.727,3.873,0.78,10.814-2.893,16.538c-7.066,1.609-14.817,3.374-22.688,5.167c-1.095-1.3-1.772-2.411-2.724-3.182
		c-4.875-3.943-8.621-10.093-15.487-10.468c-11.246-0.613-20.923-5.663-31.042-9.577c-0.801-0.31-1.825-0.041-3.052-0.041
		c-1.369,2.396-2.753,4.819-4.119,7.212c-2.752-0.807-5.082-1.489-7.237-2.121c0-2.563,0-4.744,0-6.727
		c14.197-6.961,28.115-13.484,41.754-20.549c18.715-9.694,38.307-16.83,58.965-20.824c7.283-1.408,14.738-1.459,21.898,1.682
		c9.238,4.053,18.963,5.571,29.063,6.302c8.649,0.626,14.172-2.864,18.691-9.342c5.381-7.713,8.234-15.942,5.174-24.714
		c-3.91-2.182-7.453-3.763-10.543-5.974c-5.156-3.69-10.532-5.979-17.049-5.575c-5.441,0.337-10.917,0.101-16.377,0.104
		c-11.527,0.006-23.055,0.001-35.002,0.001c-5.137,9.189-17.653,16.221-29.48,14.363c8.456-7.846,15.728-16.973,25.094-22.633
		c9.921-5.995,16.474-13.736,21.578-23.505c1.192-2.282,2.284-4.885,4.151-6.495c4.878-4.209,5.123-9.196,1.938-13.843
		c-2.774-4.048-4.992-9.752-11.049-9.908c-5.528-0.141-9.554-3.091-13.914-5.638c-6.023-3.518-8.011-2.568-10.34,3.924
		c-3.337,9.305-6.078,19.021-10.843,27.576c-10.954,19.668-22.855,38.816-34.719,57.959c-1.496,2.413-4.863,4.319-7.736,5.114
		c-12.694,3.512-25.5,6.636-38.324,9.653c-2.93,0.689-6.093,0.395-9.562,0.575c-1.388-16.473-4.67-31.985,7.337-44.612
		c-3.106-5.595-7.487-8.03-12.435-9.871c-5.193-1.931-10.282-4.142-15.419-6.226c-3.218-1.306-6.345-2.973-9.679-3.83
		c-6.614-1.7-7.63-0.883-9.714,6.082c-0.167,0.558-0.755,0.991-1.148,1.478c-2.398,0.491-4.793,0.987-8.645,1.783
		c6.356,4.642,6.491,10.353,6.384,16.299c-0.185,10.355-0.232,20.72,0.016,31.073c0.159,6.693,0.946,13.372,1.457,20.12
		c-3.086,1.481-5.308,2.787-7.689,3.652c-15.976,5.808-31.885,11.831-48.037,17.11c-6.177,2.018-10.781,5.149-14.658,11.441
		c6.469,2.895,3.563,8.358,2.771,13.573c14.331,8.064,28.237,15.89,42.928,24.157c4.563-10.34,14.001-13.073,22.719-16.798
		c2.349-1.004,5.161-1.051,7.358-2.266c7.205-3.985,12.999-3.369,18.901,3.002c2.994,3.232,8.008,6.641,12.916,3.544
		c6.71-4.234,12.808-9.436,19.206-14.172c0.725-0.537,1.693-0.746,3.298-1.423c1.441,2.124,2.868,4.227,4.499,6.632
		c-2.69,0.416-4.109,0.635-6.546,1.011c5.503,5.389,4.544,11.343,5.088,17.021c0.414,4.319-1.487,6.684-5.2,8.04
		c-6.668,2.435-13.361,4.801-20.045,7.193c-16.367,5.858-32.655,11.956-49.163,17.382c-3.624,1.191-9.568,1.621-11.763-0.446
		c-4.53-4.264-8.48-4.122-12.755-2.437c-2.538,6.009-5.431,11.423-7.094,17.192c-1.763,6.114-2.909,12.531-3.29,18.877
		c-0.321,5.319,0.28,10.856,1.474,16.068c2.58,11.261,5.734,22.395,8.851,33.525c0.38,1.355,1.978,2.369,2.908,3.423
		c5.814-1.914,10.855-2.576,15.675,1.832c6.193,5.664,14.128,8.248,21.292,3.611c11.943-7.731,17.238-17.76,15.107-26.919
		c-2.474-10.632-5.367-21.171-8.284-31.693c-1.088-3.927-0.831-6.654,3.324-8.725c8.614-4.294,16.902-9.245,25.535-13.499
		c5.867-2.892,12.093-5.058,19.566-8.127c-1.11,15.967-2.089,30.063-3.138,45.156c-11.147,3.772-22.328,7.554-34.315,11.61
		c1.392,3.314,2.011,8.149,4.756,10.661c6.97,6.38,15.635,9.447,26.393,7.446c-0.826,9.389-1.547,17.585-2.305,26.201
		c-4.308,1.024-7.997,2.103-11.76,2.757c-11.144,1.934-22.109,4.455-32.246,9.651c-1.991,1.02-3.568,2.846-5.26,4.238
		c5.124,7.591,10.621,13.557,18.354,16.564c7.818,3.04,15.218-1.982,24.23-3.078c-1.821,6.58-3.737,11.981-4.754,17.546
		c-1.429,7.818-6.126,11.049-13.514,13.014c-18.337,4.876-36.436,10.641-54.667,15.922c-12.975,3.758-25.912,7.735-39.065,10.744
		c-5.35,1.224-11.027,0.679-14.607,6.027c0.31,0.536,1.276,1.419,1.181,2.165c-1.234,9.656,3.874,14.403,12.214,17.888
		c5.228,2.185,10.613,5.547,14.156,9.843c5.139,6.234,11.964,7.363,18.781,9.214c2.927,0.794,4.92,0.053,7.394-2.499
		c3.783-3.904,8.926-6.518,15.215-7.598c-10.904,17.582-26.536,28.95-42.675,39.369c-16.023,10.344-32.327,20.481-50.801,27.379
		c-3.552-9.143-8.336-16.431-13.846-23.533c-4.487-5.782-7.662-13.094-9.584-20.222c-2.249-8.342-2.958-17.193-3.488-25.875
		c-0.408-6.678,0.778-13.437,0.75-20.158c-0.042-10.091-0.128-20.087,7.665-28.856c-5.96-5.355-3.722-11.103-1.169-16.907
		c1.56-3.546,3.124-7.11,4.342-10.781c1.057-3.188,2.152-6.65-2.088-9.561c-3.134,4.537-6.071,8.694-8.909,12.916
		c-8.822,13.122-17.664,26.179-28.714,37.654c-8.032,8.342-15.628,17.146-22.899,26.163c-5.854,7.26-10.737,15.294-16.402,22.717
		c-5.808,7.611-7.549,17.515-14.326,24.57c-1.693,1.762-2.588,4.291-3.139,5.242c1.653,5.926,3.774,10.453,4.016,15.077
		c0.423,8.057,1.992,10.718,9.368,13.01c14.737,4.58,28.243,11.496,40.069,21.57c5.866,4.997,12.161,7.801,20.113,4.095
		c4.012-1.87,8.379-2.323,12.959-0.026c2.629,1.318,6.919,2.072,9.208,0.809c7.171-3.953,15.388-7.464,16.269-17.517
		c0.128-1.456,0.879-2.858,1.49-4.742c7.972,3.214,13.948-0.924,20.426-3.791c6.703-2.966,13.422-9.048,21.315-2.239
		c0.376,0.325,1.252,0.078,1.895,0.085c11.018,0.124,22.035,0.316,33.052,0.311c2.18-0.001,4.538-0.362,6.505-1.245
		c6.049-2.715,11.682-6.753,17.97-8.445c8.835-2.378,16.401-7.046,24.525-10.746c20.415-9.299,34.728-24.848,46.142-43.558
		c5.171-8.476,10.119-17.092,15.478-25.446c1.477-2.303,3.788-5.034,6.19-5.618c13.023-3.165,26.485-7.952,37.528,4.879
		c0.819,0.952,1.988,1.679,3.117,2.278c19.538,10.357,35.82,25.063,52.459,39.283c3.349,2.863,6.449,6.017,10.12,9.464
		c-6.137,8.746-11.842,16.778-17.423,24.896c-1.533,2.23-4.309,4.501-0.475,8.05c4.685-1.668,9.698-3.515,14.757-5.225
		c2.055-0.695,4.437-1.949,6.278-1.463c5.094,1.344,10.002,3.415,14.946,5.298c9.766,3.721,19.562,7.374,29.24,11.314
		c7.057,2.873,14.739,3.349,21.682,7.168c7.697,4.232,15.967,7.916,25.517,6.473c5.017-0.759,9.094-1.718,12.187-6.38
		c2.834-4.273,4.586-10.155,11.285-10.716c0.747-0.063,1.897-2.053,1.894-3.147c-0.011-4.826,0.161-9.753-0.728-14.455
		C577.518,504.532,571.93,497.811,564.597,491.902z M370.831,250.642c0.936-7.327,2.907-14.534,3.642-21.872
		c0.692-6.91,3.562-11.488,10.405-13.113c6.463-1.534,12.974-2.868,18.994-4.187c4.243,5.432,2.487,10.148,0.957,14.008
		c-3.787,9.548-8.467,18.743-12.822,28.063c-1.227,2.627-2.731,5.134-3.839,7.807c-4.811,11.608-5.377,11.94-19.156,9.926
		C366.101,264.149,369.957,257.487,370.831,250.642z"></path>
	<path d="M65.911,360.168c2.391,0.765,5.383,1.93,7.412,1.137c7.325-2.862,13.207-0.853,18.47,4.307
		c12.772-3.068,21.609-11.353,27.166-21.958c4.24-8.089,6.089-17.473,11.622-25.144c0.663-0.919,0.704-2.493,0.6-3.726
		c-0.852-10.044,7.223-18.463,5.184-28.81c-0.282-1.43,1.512-3.47,2.695-4.945c2.422-3.018,5.042-5.88,7.653-8.741
		c4.965-5.441,7.648-11.881,9.641-19.894c-2.702,0.97-4.235,1.396-5.663,2.052c-10.233,4.704-20.199,10.113-30.719,14.041
		c-16.868,6.297-33.969,12.063-51.224,17.206c-11.582,3.452-23.519,7.582-34.953-1.842c-2.799-2.307-8.524-3.821-8.276,3.91
		c0.016,0.499-0.521,1.212-0.998,1.502c-7.049,4.285-4.416,9.542-1.702,14.978c1.553,3.11,3.54,6.365,3.798,9.674
		c0.386,4.945,2.377,8.431,5.848,11.698c3.949,3.716,6.612,8.093,8.388,13.565c2.553,7.861,4.834,16.894,16.153,17.438
		C60.018,356.76,62.86,359.192,65.911,360.168z"></path>
	<path d="M69.547,181.007c3.394-1.152,6.929-1.498,9.341-3.327c8.199-6.215,15.132-3.166,21.723,2.351
		c6.132,5.133,11.906,10.691,17.916,15.973c1.867,1.64,4.325,4.555,5.941,4.209c8.965-1.916,18.591-2.947,24.242-11.851
		c1.538-2.422,3.295-4.707,4.994-7.023c7.392-10.074,7.273-26.38-1.104-33.862c-6.229-5.563-13.816-8.97-22.086-11.337
		c-12.271-3.513-25.663,1.424-37.36-5.467c-0.641-0.377-2.003-0.042-2.777,0.401c-6.32,3.62-12.282,1.212-17.917-1.301
		c-3.953,2.947-7.495,5.588-11.936,8.899c1.101,2.95,1.426,7.035,3.637,9.157c7.138,6.851,6.271,14.521,3.021,22.238
		C65.38,174.35,65.661,177.391,69.547,181.007z"></path>
</g>
</svg>
