<?xml version="1.0" encoding="utf-8"?>
<!-- Generator: Adobe Illustrator 24.0.2, SVG Export Plug-In . SVG Version: 6.00 Build 0)  -->
<svg version="1.1" id="Layer_1" xmlns="http://www.w3.org/2000/svg" x="0px" y="0px"
	 viewBox="0 0 161.6 161" style="enable-background:new 0 0 161.6 161;" xml:space="preserve">
<style type="text/css">
	.st0{fill:none;}
	.st1{fill:#242424;}
	.st2{fill:#A83F1A;}
	.st3{fill:#EFCBC2;}
	.st4{fill:#C45626;}
</style>
<g>
	<path class="st0" d="M71.9,57.2c-0.8,6.8-1.3,13.6-1.6,20.4C70,84.4,69.9,91.2,69.9,98c0,6.8,0.1,13.6,0.4,20.4
		c0.3,6.8,0.7,13.6,1.6,20.4c0.8-6.8,1.3-13.6,1.6-20.4s0.4-13.6,0.4-20.4c0-6.8-0.2-13.6-0.4-20.4C73.1,70.8,72.7,64,71.9,57.2z"/>
	<path class="st0" d="M13.9,34.1c-1.6-0.3-3.3-0.5-4.9-0.6l-1.8-0.1l-0.1,2c0,0.3,0,0.6,0,0.9c-0.2,0-0.4-0.1-0.5-0.1l-2.5-0.4
		l0.2,2.1c0.1,1.3,0.3,2.7,0.6,4s0.6,2.7,1.2,4c0.6-1.3,0.9-2.7,1.2-4c0.1-0.5,0.2-1.1,0.3-1.6c0.3,0.1,0.7,0.2,1,0.3l2.4,0.7
		l0.1-2.6c0-0.5,0-1,0-1.6c1-0.1,1.9-0.2,2.9-0.4c0.8-0.2,1.6-0.3,2.4-0.6c0.8-0.2,1.6-0.5,2.4-0.8c-0.8-0.3-1.6-0.6-2.4-0.8
		C15.6,34.4,14.7,34.2,13.9,34.1z"/>
	<path class="st0" d="M154.8,35.4c0-0.3,0-0.6,0-0.9l-0.1-2l-1.8,0.1c-1.6,0.1-3.3,0.3-4.9,0.6c-0.8,0.2-1.6,0.3-2.4,0.6
		c-0.8,0.2-1.6,0.5-2.4,0.8c0.8,0.3,1.6,0.6,2.4,0.8s1.6,0.4,2.4,0.6c1,0.2,1.9,0.3,2.9,0.4c0,0.5,0,1,0,1.6l0.1,2.6l2.4-0.7
		c0.3-0.1,0.7-0.2,1-0.3c0.1,0.5,0.2,1.1,0.3,1.6c0.3,1.3,0.6,2.7,1.2,4c0.6-1.3,0.9-2.7,1.2-4c0.3-1.3,0.5-2.7,0.6-4l0.2-2.1
		l-2.5,0.4C155.2,35.3,155,35.3,154.8,35.4z"/>
	<path class="st0" d="M91.4,57.2c-0.8,6.8-1.3,13.6-1.6,20.4c-0.3,6.8-0.4,13.6-0.4,20.4c0,6.8,0.1,13.6,0.4,20.4s0.7,13.6,1.6,20.4
		c0.8-6.8,1.3-13.6,1.6-20.4c0.3-6.8,0.4-13.6,0.4-20.4c0-6.8-0.2-13.6-0.4-20.4C92.7,70.8,92.3,64,91.4,57.2z"/>
	<path class="st0" d="M71.3,146.7c0.9,0.8,1.7,1.6,2.5,2.4c4.3-1.2,9.3-1.7,14.6-0.7c0.9-0.9,1.8-1.7,2.7-2.5
		C83.8,143.9,76.8,144.9,71.3,146.7z"/>
	<path class="st1" d="M88.4,148.4c-5.3-1.1-10.4-0.5-14.6,0.7c-3.5,1-6.5,2.3-8.8,3.6c3.2,1.6,6.2,3.4,9.2,5.5
		c2.4,1.7,4.5,2.6,6.7,2.8c2.1-0.2,4.3-1.1,6.7-2.8c3.3-2.3,6.8-4.4,10.4-6.1C94.7,150.2,91.5,149,88.4,148.4z"/>
	<path class="st2" d="M22.2,23.6c10.6,1.9,44.3,9.4,56.5,22.5c0,0-22.2-26.9-51-35c-4.1-1.2-8.4,1-9.8,5.1
		C16.8,19.3,17.1,22.7,22.2,23.6z"/>
	<path class="st2" d="M40.4,9.9c7.9,4.1,32.8,18.5,39.2,31.9c0,0-11-27.3-32.2-40.8c-2.5-1.6-5.9-1.2-7.9,1.1
		C37.4,4.5,36.1,7.6,40.4,9.9z"/>
	<path class="st2" d="M82.9,46.1c12.2-13.1,45.9-20.6,56.5-22.5c5.2-0.9,5.4-4.3,4.3-7.4c-1.4-4-5.7-6.2-9.8-5.1
		C105,19.2,82.9,46.1,82.9,46.1z"/>
	<path class="st2" d="M121.2,9.9c4.3-2.3,3-5.4,0.9-7.8c-2-2.2-5.4-2.7-7.9-1.1C93,14.6,82,41.8,82,41.8
		C88.4,28.4,113.3,14.1,121.2,9.9z"/>
	<path class="st3" d="M91.1,146c3.3,0.9,6.7,2.4,10.1,4.6c9.8-4.2,20.5-6.5,30.9-8.1c7.2-1.1,14.5-1.7,21.8-2.1
		c3.5-0.2,5.5-0.6,6.5-1.9c0.9-1.1,1.1-3,1.1-6c0-2.1,0-4.2,0-6.3C154.8,126.5,111.1,129.7,91.1,146z"/>
	<path class="st4" d="M161.6,65.4c0-9.1,0-18.1,0-27.2c0-6.8-1.6-8.5-8.5-8.8c-25.9-1.2-49.6,5-70.4,20.9c-0.5,0.3-1,0.6-1.9,1.2
		l0,0l0,0c-0.9-0.6-1.4-0.9-1.9-1.2C58.1,34.4,34.4,28.2,8.5,29.4c-6.9,0.3-8.4,2-8.5,8.8c0,9.1,0,18.1,0,27.2c0,20.2,0,40.5,0,60.7
		c7.2,0.4,51.8,3.7,71.2,20.6c5.6-1.8,12.5-2.8,19.9-0.8c20-16.3,63.7-19.4,70.5-19.8C161.6,105.9,161.6,85.7,161.6,65.4z
		 M16.4,36.3c-0.8,0.2-1.6,0.4-2.4,0.6c-1,0.2-1.9,0.3-2.9,0.4c0,0.5,0,1,0,1.6L11,41.5l-2.4-0.7c-0.3-0.1-0.7-0.2-1-0.3
		c-0.1,0.5-0.2,1.1-0.3,1.6c-0.3,1.3-0.6,2.7-1.2,4c-0.6-1.3-0.9-2.7-1.2-4s-0.5-2.7-0.6-4L4.1,36l2.5,0.4c0.2,0,0.4,0.1,0.5,0.1
		c0-0.3,0-0.6,0-0.9l0.1-2L9,33.7c1.6,0.1,3.3,0.3,4.9,0.6c0.8,0.2,1.6,0.3,2.4,0.6c0.8,0.2,1.6,0.5,2.4,0.8
		C18,35.8,17.2,36.1,16.4,36.3z M73.4,118.3c-0.3,6.8-0.7,13.6-1.6,20.4c-0.8-6.8-1.3-13.6-1.6-20.4s-0.4-13.6-0.4-20.4
		c0-6.8,0.2-13.6,0.4-20.4c0.3-6.8,0.7-13.6,1.6-20.4c0.8,6.8,1.3,13.6,1.6,20.4c0.3,6.8,0.4,13.6,0.4,20.4
		C73.9,104.8,73.7,111.5,73.4,118.3z M93,118.3c-0.3,6.8-0.7,13.6-1.6,20.4c-0.8-6.8-1.3-13.6-1.6-20.4c-0.3-6.8-0.4-13.6-0.4-20.4
		c0-6.8,0.2-13.6,0.4-20.4c0.3-6.8,0.7-13.6,1.6-20.4c0.8,6.8,1.3,13.6,1.6,20.4c0.3,6.8,0.4,13.6,0.4,20.4
		C93.4,104.8,93.3,111.5,93,118.3z M157.6,37c-0.1,1.3-0.3,2.7-0.6,4c-0.3,1.3-0.6,2.7-1.2,4c-0.6-1.3-0.9-2.7-1.2-4
		c-0.1-0.5-0.2-1.1-0.3-1.6c-0.3,0.1-0.7,0.2-1,0.3l-2.4,0.7l-0.1-2.6c0-0.5,0-1,0-1.6c-1-0.1-1.9-0.2-2.9-0.4
		c-0.8-0.2-1.6-0.3-2.4-0.6c-0.8-0.2-1.6-0.5-2.4-0.8c0.8-0.3,1.6-0.6,2.4-0.8s1.6-0.4,2.4-0.6c1.6-0.3,3.3-0.5,4.9-0.6l1.8-0.1
		l0.1,2c0,0.3,0,0.6,0,0.9c0.2,0,0.4-0.1,0.5-0.1l2.5-0.4L157.6,37z"/>
	<path class="st3" d="M0,132.4c0,3.1,0.2,4.9,1.1,6c1,1.3,3,1.7,6.5,1.9c7.3,0.5,14.6,1.1,21.8,2.1c10.9,1.6,22,4.1,32.2,8.6
		c2.3-1.4,5.6-3.2,9.6-4.4C51.8,129.7,7.2,126.4,0,126C0,128.2,0,130.3,0,132.4z"/>
</g>
</svg>
