<?xml version="1.0" encoding="utf-8"?>
<!-- Generator: Adobe Illustrator 24.0.2, SVG Export Plug-In . SVG Version: 6.00 Build 0)  -->
<svg version="1.1" id="Layer_1" xmlns="http://www.w3.org/2000/svg" x="0px" y="0px"
	 viewBox="0 0 964.8 158.2" style="enable-background:new 0 0 964.8 158.2;" xml:space="preserve">
<style type="text/css">
	.st0{fill:#F48FB1;}
	.st1{fill:none;}
	.st2{fill:#242424;}
	.st3{fill:#A83F1A;}
	.st4{fill:#EFCBC2;}
	.st5{fill:#C45626;}
</style>
<g>
	<path class="st0" d="M220,96.2h38.9v7.2c0,14.3,6.9,18.4,14.4,18.4c7.9,0,13.8-5.1,13.8-16.4V37.9c0-3.1-1.7-4.8-4.8-4.8h-37.2V0.7
		h64.7c11,0,15.8,4.8,15.8,15.7v91c0,33.8-26.5,50.1-53,50.1S220,140.8,220,107.4L220,96.2L220,96.2z"/>
	<path class="st0" d="M365.9,122.4h16.2V33.1h-16.2V0.7H435v32.4h-16.2v89.3H435v32.4h-69.1V122.4z"/>
	<path class="st0" d="M481.8,33.1h-14.1V0.7h68.1c31,0,52.6,13.6,52.6,40.2c0,17.4-10,28.3-17.9,32.7V74
		c17.9,5.5,24.4,21.1,24.4,34.8c0,33.8-28.2,46-59.2,46h-38.2c-11,0-15.8-4.8-15.8-15.7V33.1z M535.8,60.4c9.3,0,13.4-6.8,13.4-14.3
		c0-7.2-4.1-13.3-13.8-13.3h-14.8V60h15.1V60.4z M525.5,122.4h13.8c10.3,0,15.5-7.5,15.5-16s-4.8-15.7-15.1-15.7h-18.9V118
		C520.7,120.7,522.4,122.4,525.5,122.4z"/>
	<path class="st0" d="M628.7,122.4h16.2V33.1h-16.2V0.7h69.1v32.4h-16.2v89.3h16.2v32.4h-69.1V122.4z"/>
	<path class="st0" d="M744.3,37.9c0-3.1-1.7-4.8-4.8-4.8h-9.3V0.7h37.2c11,0,15.8,4.8,15.8,15.7V60h5.2c5.5,0,9.3,0,12-4.8
		l26.1-54.5h42.3l-31,62.4c-5.2,10.6-11.4,13.3-11.4,13.3v0.3c0,0,6.5,1.4,12,12.3l14.1,28.3c2.1,4.4,6.2,5.1,10.7,5.1h4.1v32.4
		h-22.7c-11,0-17.2-1.7-22-11.3l-23.4-46c-2.8-5.1-7.2-5.1-13.1-5.1h-3.1v62.4h-38.9L744.3,37.9L744.3,37.9z"/>
	<path class="st0" d="M895.7,122.4h16.2V33.1h-16.2V0.7h69.1v32.4h-16.2v89.3h16.2v32.4h-69.1V122.4z"/>
</g>
<g>
	<path class="st1" d="M70.7,56.2c-0.8,6.7-1.3,13.4-1.6,20.1c-0.3,6.7-0.4,13.4-0.4,20.1c0,6.7,0.1,13.4,0.4,20.1
		c0.3,6.7,0.7,13.4,1.6,20.1c0.8-6.7,1.3-13.4,1.6-20.1s0.4-13.4,0.4-20.1c0-6.7-0.2-13.4-0.4-20.1C71.9,69.6,71.5,62.9,70.7,56.2z"
		/>
	<path class="st1" d="M13.7,33.5c-1.6-0.3-3.2-0.5-4.8-0.6l-1.8-0.1l-0.1,2c0,0.3,0,0.6,0,0.9c-0.2,0-0.4-0.1-0.5-0.1L4,35.2
		l0.2,2.1c0.1,1.3,0.3,2.7,0.6,3.9c0.3,1.3,0.6,2.7,1.2,3.9c0.6-1.3,0.9-2.7,1.2-3.9c0.1-0.5,0.2-1.1,0.3-1.6c0.3,0.1,0.7,0.2,1,0.3
		l2.4,0.7l0.1-2.6c0-0.5,0-1,0-1.6c1-0.1,1.9-0.2,2.9-0.4c0.8-0.2,1.6-0.3,2.4-0.6c0.8-0.2,1.6-0.5,2.4-0.8
		c-0.8-0.3-1.6-0.6-2.4-0.8C15.3,33.8,14.5,33.6,13.7,33.5z"/>
	<path class="st1" d="M152.2,34.8c0-0.3,0-0.6,0-0.9l-0.1-2l-1.8,0.1c-1.6,0.1-3.2,0.3-4.8,0.6c-0.8,0.2-1.6,0.3-2.4,0.6
		c-0.8,0.2-1.6,0.5-2.4,0.8c0.8,0.3,1.6,0.6,2.4,0.8c0.8,0.2,1.6,0.4,2.4,0.6c1,0.2,1.9,0.3,2.9,0.4c0,0.5,0,1,0,1.6l0.1,2.6
		l2.4-0.7c0.3-0.1,0.7-0.2,1-0.3c0.1,0.5,0.2,1.1,0.3,1.6c0.3,1.3,0.6,2.7,1.2,3.9c0.6-1.3,0.9-2.7,1.2-3.9c0.3-1.3,0.5-2.7,0.6-3.9
		l0.2-2.1l-2.5,0.4C152.6,34.7,152.4,34.7,152.2,34.8z"/>
	<path class="st1" d="M89.9,56.2c-0.8,6.7-1.3,13.4-1.6,20.1c-0.3,6.7-0.4,13.4-0.4,20.1c0,6.7,0.1,13.4,0.4,20.1s0.7,13.4,1.6,20.1
		c0.8-6.7,1.3-13.4,1.6-20.1c0.3-6.7,0.4-13.4,0.4-20.1c0-6.7-0.2-13.4-0.4-20.1C91.1,69.6,90.7,62.9,89.9,56.2z"/>
	<path class="st1" d="M70.1,144.2c0.9,0.8,1.7,1.6,2.5,2.4c4.2-1.2,9.1-1.7,14.4-0.7c0.9-0.9,1.8-1.7,2.7-2.5
		C82.4,141.4,75.5,142.4,70.1,144.2z"/>
	<path class="st2" d="M86.9,145.9c-5.2-1.1-10.2-0.5-14.4,0.7c-3.4,1-6.4,2.3-8.7,3.5c3.1,1.6,6.1,3.3,9,5.4
		c2.4,1.7,4.4,2.6,6.6,2.8c2.1-0.2,4.2-1.1,6.6-2.8c3.2-2.3,6.7-4.3,10.2-6C93.1,147.6,89.9,146.4,86.9,145.9z"/>
	<path class="st3" d="M21.8,23.2c10.4,1.9,43.5,9.2,55.5,22.1c0,0-21.8-26.4-50.1-34.4c-4-1.2-8.3,1-9.6,5
		C16.5,18.9,16.8,22.3,21.8,23.2z"/>
	<path class="st3" d="M39.7,9.7c7.8,4,32.2,18.2,38.5,31.4c0,0-10.8-26.8-31.7-40.1c-2.5-1.6-5.8-1.2-7.8,1.1
		C36.8,4.4,35.5,7.4,39.7,9.7z"/>
	<path class="st3" d="M81.5,45.3c12-12.9,45.1-20.3,55.5-22.1c5.1-0.9,5.3-4.2,4.2-7.3c-1.4-3.9-5.6-6.1-9.6-5
		C103.2,18.8,81.5,45.3,81.5,45.3z"/>
	<path class="st3" d="M119.1,9.7c4.2-2.3,2.9-5.3,0.9-7.7c-2-2.2-5.3-2.7-7.8-1.1C91.4,14.3,80.6,41.1,80.6,41.1
		C86.9,27.9,111.4,13.8,119.1,9.7z"/>
	<path class="st4" d="M89.6,143.5c3.2,0.9,6.6,2.4,9.9,4.5c9.6-4.1,20.2-6.4,30.4-8c7.1-1.1,14.3-1.7,21.4-2.1
		c3.4-0.2,5.4-0.6,6.4-1.9c0.9-1.1,1.1-2.9,1.1-5.9c0-2.1,0-4.1,0-6.2C152.2,124.3,109.2,127.5,89.6,143.5z"/>
	<path class="st5" d="M158.9,64.3c0-8.9,0-17.8,0-26.7c0-6.7-1.6-8.4-8.4-8.7c-25.5-1.2-48.8,4.9-69.2,20.5c-0.5,0.3-1,0.6-1.9,1.2
		l0,0l0,0c-0.9-0.6-1.4-0.9-1.9-1.2C57.1,33.8,33.8,27.7,8.4,28.9c-6.8,0.3-8.3,2-8.4,8.7c0,8.9,0,17.8,0,26.7c0,19.9,0,39.8,0,59.7
		c7.1,0.4,50.9,3.6,70,20.3c5.5-1.8,12.3-2.8,19.6-0.8c19.7-16,62.6-19.1,69.3-19.5C158.9,104.1,158.9,84.2,158.9,64.3z M16.1,35.7
		c-0.8,0.2-1.6,0.4-2.4,0.6c-1,0.2-1.9,0.3-2.9,0.4c0,0.5,0,1,0,1.6l-0.1,2.6l-2.4-0.7c-0.3-0.1-0.7-0.2-1-0.3
		c-0.1,0.5-0.2,1.1-0.3,1.6C6.9,42.6,6.6,44,6,45.3c-0.6-1.3-0.9-2.7-1.2-3.9c-0.3-1.3-0.5-2.7-0.6-3.9L4,35.4l2.5,0.4
		c0.2,0,0.4,0.1,0.5,0.1c0-0.3,0-0.6,0-0.9l0.1-2l1.8,0.1c1.6,0.1,3.2,0.3,4.8,0.6c0.8,0.2,1.6,0.3,2.4,0.6c0.8,0.2,1.6,0.5,2.4,0.8
		C17.7,35.2,16.9,35.5,16.1,35.7z M72.2,116.3c-0.3,6.7-0.7,13.4-1.6,20.1c-0.8-6.7-1.3-13.4-1.6-20.1s-0.4-13.4-0.4-20.1
		c0-6.7,0.2-13.4,0.4-20.1c0.3-6.7,0.7-13.4,1.6-20.1c0.8,6.7,1.3,13.4,1.6,20.1c0.3,6.7,0.4,13.4,0.4,20.1
		C72.6,103,72.5,109.6,72.2,116.3z M91.4,116.3c-0.3,6.7-0.7,13.4-1.6,20.1c-0.8-6.7-1.3-13.4-1.6-20.1c-0.3-6.7-0.4-13.4-0.4-20.1
		c0-6.7,0.2-13.4,0.4-20.1c0.3-6.7,0.7-13.4,1.6-20.1c0.8,6.7,1.3,13.4,1.6,20.1c0.3,6.7,0.4,13.4,0.4,20.1
		C91.8,103,91.7,109.6,91.4,116.3z M154.9,36.3c-0.1,1.3-0.3,2.7-0.6,3.9c-0.3,1.3-0.6,2.7-1.2,3.9c-0.6-1.3-0.9-2.7-1.2-3.9
		c-0.1-0.5-0.2-1.1-0.3-1.6c-0.3,0.1-0.7,0.2-1,0.3l-2.4,0.7l-0.1-2.6c0-0.5,0-1,0-1.6c-1-0.1-1.9-0.2-2.9-0.4
		c-0.8-0.2-1.6-0.3-2.4-0.6c-0.8-0.2-1.6-0.5-2.4-0.8c0.8-0.3,1.6-0.6,2.4-0.8c0.8-0.2,1.6-0.4,2.4-0.6c1.6-0.3,3.2-0.5,4.8-0.6
		l1.8-0.1l0.1,2c0,0.3,0,0.6,0,0.9c0.2,0,0.4-0.1,0.5-0.1l2.5-0.4L154.9,36.3z"/>
	<path class="st4" d="M0,130.1c0,3,0.2,4.8,1.1,5.9c1,1.3,2.9,1.7,6.4,1.9c7.2,0.5,14.4,1.1,21.4,2.1c10.7,1.6,21.6,4,31.7,8.5
		c2.3-1.4,5.5-3.1,9.4-4.3c-19.1-16.6-62.9-19.9-70-20.3C0,126,0,128.1,0,130.1z"/>
</g>
</svg>
