<?xml version="1.0" encoding="utf-8"?>
<!-- Generator: Adobe Illustrator 24.0.2, SVG Export Plug-In . SVG Version: 6.00 Build 0)  -->
<svg version="1.1" id="Layer_1" xmlns="http://www.w3.org/2000/svg" xmlns:xlink="http://www.w3.org/1999/xlink" x="0px" y="0px"
	 viewBox="0 0 161 161" style="enable-background:new 0 0 161 161;" xml:space="preserve">
<style type="text/css">
	.st0{fill:none;}
	.st1{fill:#242424;}
	.st2{fill:#A83F1A;}
	.st3{fill:#EFCBC2;}
	.st4{fill:#C45626;}
</style>
<g>
	<path class="st0" d="M71.4,57.2c-0.8,6.8-1.3,13.6-1.6,20.4c-0.3,6.8-0.4,13.6-0.4,20.4s0.1,13.6,0.4,20.4s0.7,13.6,1.6,20.4
		c0.8-6.8,1.3-13.6,1.6-20.4s0.4-13.6,0.4-20.4S73.2,84.4,73,77.6C72.6,70.8,72.2,64,71.4,57.2z"/>
	<path class="st0" d="M13.7,34.1c-1.6-0.3-3.3-0.5-4.9-0.6L7,33.4l-0.1,2c0,0.3,0,0.6,0,0.9c-0.2,0-0.4-0.1-0.5-0.1l-2.5-0.4
		l0.2,2.1c0.1,1.3,0.3,2.7,0.6,4s0.6,2.7,1.2,4c0.6-1.3,0.9-2.7,1.2-4c0.1-0.5,0.2-1.1,0.3-1.6c0.3,0.1,0.7,0.2,1,0.3l2.4,0.7
		l0.1-2.6c0-0.5,0-1,0-1.6c1-0.1,1.9-0.2,2.9-0.4c0.8-0.2,1.6-0.3,2.4-0.6c0.8-0.2,1.6-0.5,2.4-0.8c-0.8-0.3-1.6-0.6-2.4-0.8
		C15.4,34.4,14.5,34.2,13.7,34.1z"/>
	<path class="st0" d="M154,35.4c0-0.3,0-0.6,0-0.9l-0.1-2l-1.8,0.1c-1.6,0.1-3.3,0.3-4.9,0.6c-0.8,0.2-1.6,0.3-2.4,0.6
		c-0.8,0.2-1.6,0.5-2.4,0.8c0.8,0.3,1.6,0.6,2.4,0.8c0.8,0.2,1.6,0.4,2.4,0.6c1,0.2,1.9,0.3,2.9,0.4c0,0.5,0,1,0,1.6l0.1,2.6
		l2.4-0.7c0.3-0.1,0.7-0.2,1-0.3c0.1,0.5,0.2,1.1,0.3,1.6c0.3,1.3,0.6,2.7,1.2,4c0.6-1.3,0.9-2.7,1.2-4c0.3-1.3,0.5-2.7,0.6-4
		l0.2-2.1l-2.5,0.4C154.4,35.3,154.2,35.3,154,35.4z"/>
	<path class="st0" d="M90.9,57.2c-0.8,6.8-1.3,13.6-1.6,20.4C89,84.4,88.9,91.2,88.9,98s0.1,13.6,0.4,20.4s0.7,13.6,1.6,20.4
		c0.8-6.8,1.3-13.6,1.6-20.4c0.3-6.8,0.4-13.6,0.4-20.4s-0.2-13.6-0.4-20.4C92.2,70.8,91.8,64,90.9,57.2z"/>
	<path class="st0" d="M70.8,146.7c0.9,0.8,1.7,1.6,2.5,2.4c4.3-1.2,9.3-1.7,14.5-0.7c0.9-0.9,1.8-1.7,2.7-2.5
		C83.3,143.9,76.3,144.9,70.8,146.7z"/>
	<path class="st1" d="M87.9,148.4c-5.3-1.1-10.4-0.5-14.5,0.7c-3.5,1-6.5,2.3-8.8,3.6c3.2,1.6,6.2,3.4,9.2,5.5
		c2.4,1.7,4.5,2.6,6.7,2.8c2.1-0.2,4.3-1.1,6.7-2.8c3.3-2.3,6.8-4.4,10.4-6.1C94.2,150.2,91,149,87.9,148.4z"/>
	<path class="st2" d="M21.9,23.6c10.6,1.9,44.1,9.4,56.3,22.5c0,0-22.1-26.9-50.8-35c-4.1-1.2-8.4,1-9.8,5.1
		C16.6,19.3,16.9,22.7,21.9,23.6z"/>
	<path class="st2" d="M40.1,9.9c7.9,4.1,32.7,18.5,39,31.9c0,0-11-27.3-32.1-40.8c-2.5-1.6-5.9-1.2-7.9,1.1
		C37.1,4.5,35.8,7.6,40.1,9.9z"/>
	<path class="st2" d="M82.4,46.1c12.2-13.1,45.7-20.6,56.3-22.5c5.2-0.9,5.4-4.3,4.3-7.4c-1.4-4-5.7-6.2-9.8-5.1
		C104.4,19.2,82.4,46.1,82.4,46.1z"/>
	<path class="st2" d="M120.5,9.9c4.3-2.3,3-5.4,0.9-7.8c-2-2.2-5.4-2.7-7.9-1.1C92.5,14.6,81.5,41.8,81.5,41.8
		C87.9,28.4,112.7,14.1,120.5,9.9z"/>
	<path class="st3" d="M90.6,146c3.3,0.9,6.7,2.4,10.1,4.6c9.8-4.2,20.4-6.5,30.8-8.1c7.2-1.1,14.4-1.7,21.7-2.1
		c3.5-0.2,5.5-0.6,6.5-1.9c0.9-1.1,1.1-3,1.1-6c0-2.1,0-4.2,0-6.3C154,126.5,110.5,129.7,90.6,146z"/>
	<path class="st4" d="M160.8,65.4c0-9.1,0-18.1,0-27.2c0-6.8-1.6-8.5-8.5-8.8c-25.8-1.2-49.4,5-70.1,20.9c-0.5,0.3-1,0.6-1.9,1.2
		l0,0l0,0c-0.9-0.6-1.4-0.9-1.9-1.2C57.7,34.4,34.1,28.2,8.3,29.4c-6.9,0.3-8.4,2-8.5,8.8c0,9.1,0,18.1,0,27.2c0,20.2,0,40.5,0,60.7
		c7.2,0.4,51.6,3.7,70.9,20.6c5.6-1.8,12.5-2.8,19.8-0.8c19.9-16.3,63.5-19.4,70.2-19.8C160.8,105.9,160.8,85.7,160.8,65.4z
		 M16.2,36.3c-0.8,0.2-1.6,0.4-2.4,0.6c-1,0.2-1.9,0.3-2.9,0.4c0,0.5,0,1,0,1.6l-0.1,2.6l-2.4-0.7c-0.3-0.1-0.7-0.2-1-0.3
		c-0.1,0.5-0.2,1.1-0.3,1.6c-0.3,1.3-0.6,2.7-1.2,4c-0.6-1.3-0.9-2.7-1.2-4s-0.5-2.7-0.6-4L3.9,36l2.5,0.4c0.2,0,0.4,0.1,0.5,0.1
		c0-0.3,0-0.6,0-0.9l0.1-2l1.8,0.1c1.6,0.1,3.3,0.3,4.9,0.6c0.8,0.2,1.6,0.3,2.4,0.6c0.8,0.2,1.6,0.5,2.4,0.8
		C17.7,35.8,17,36.1,16.2,36.3z M72.9,118.3c-0.3,6.8-0.7,13.6-1.6,20.4c-0.8-6.8-1.3-13.6-1.6-20.4s-0.4-13.6-0.4-20.4
		s0.2-13.6,0.4-20.4c0.3-6.8,0.7-13.6,1.6-20.4c0.8,6.8,1.3,13.6,1.6,20.4c0.3,6.8,0.4,13.6,0.4,20.4
		C73.4,104.8,73.2,111.5,72.9,118.3z M92.5,118.3c-0.3,6.8-0.7,13.6-1.6,20.4c-0.8-6.8-1.3-13.6-1.6-20.4
		c-0.3-6.8-0.4-13.6-0.4-20.4s0.2-13.6,0.4-20.4c0.3-6.8,0.7-13.6,1.6-20.4c0.8,6.8,1.3,13.6,1.6,20.4c0.3,6.8,0.4,13.6,0.4,20.4
		C92.9,104.8,92.8,111.5,92.5,118.3z M156.8,37c-0.1,1.3-0.3,2.7-0.6,4c-0.3,1.3-0.6,2.7-1.2,4c-0.6-1.3-0.9-2.7-1.2-4
		c-0.1-0.5-0.2-1.1-0.3-1.6c-0.3,0.1-0.7,0.2-1,0.3l-2.4,0.7l-0.1-2.6c0-0.5,0-1,0-1.6c-1-0.1-1.9-0.2-2.9-0.4
		c-0.8-0.2-1.6-0.3-2.4-0.6c-0.8-0.2-1.6-0.5-2.4-0.8c0.8-0.3,1.6-0.6,2.4-0.8c0.8-0.2,1.6-0.4,2.4-0.6c1.6-0.3,3.3-0.5,4.9-0.6
		l1.8-0.1l0.1,2c0,0.3,0,0.6,0,0.9c0.2,0,0.4-0.1,0.5-0.1l2.5-0.4L156.8,37z"/>
	<path class="st3" d="M-0.2,132.4c0,3.1,0.2,4.9,1.1,6c1,1.3,3,1.7,6.5,1.9c7.3,0.5,14.5,1.1,21.7,2.1C40,144,51,146.5,61.2,151
		c2.3-1.4,5.6-3.2,9.6-4.4C51.4,129.7,7,126.4-0.2,126C-0.2,128.2-0.2,130.3-0.2,132.4z"/>
</g>
</svg>
