<?xml version="1.0" standalone="no"?>
<!DOCTYPE svg PUBLIC "-//W3C//DTD SVG 20010904//EN"
 "http://www.w3.org/TR/2001/REC-SVG-20010904/DTD/svg10.dtd">
<svg version="1.0" xmlns="http://www.w3.org/2000/svg"
 width="671.000000pt" height="671.000000pt" viewBox="0 0 671.000000 671.000000"
 preserveAspectRatio="xMidYMid meet">
<metadata>
Created by potrace 1.11, written by Peter Selinger 2001-2013
</metadata>
<g transform="translate(0.000000,671.000000) scale(0.100000,-0.100000)"
fill="#000000" stroke="none">
<path d="M1748 6695 c-128 -47 -217 -205 -172 -301 22 -47 46 -67 138 -117
198 -108 406 -233 581 -350 93 -62 326 -227 335 -237 3 -3 39 -32 80 -64 70
-56 191 -162 270 -238 35 -33 109 -114 163 -177 37 -42 137 -193 137 -205 0
-5 2 -7 5 -4 9 9 -153 332 -221 443 -13 22 -27 47 -31 55 -4 8 -24 41 -45 73
-21 32 -38 60 -38 62 0 4 -156 231 -172 249 -5 6 -29 38 -54 71 -130 171 -304
356 -464 497 -85 74 -242 190 -302 223 -58 32 -154 41 -210 20z"/>
<path d="M4802 6699 c-54 -16 -235 -143 -367 -259 -85 -75 -274 -269 -345
-355 -41 -49 -77 -92 -80 -95 -13 -12 -190 -258 -190 -264 0 -4 -8 -16 -18
-27 -11 -10 -25 -32 -33 -47 -8 -15 -17 -29 -20 -32 -12 -11 -109 -178 -109
-189 0 -6 -4 -11 -9 -11 -5 0 -59 -99 -120 -220 -61 -122 -107 -219 -103 -216
5 3 28 38 52 78 63 106 120 175 256 312 73 74 188 178 239 217 17 13 32 26 35
29 3 3 66 51 140 107 238 176 508 350 822 527 164 91 192 121 192 200 -1 89
-70 186 -164 229 -50 22 -128 29 -178 16z"/>
<path d="M970 6251 c-178 -55 -295 -271 -225 -417 32 -68 90 -94 295 -133 86
-17 180 -37 350 -76 260 -59 675 -187 950 -292 336 -128 705 -332 841 -464 13
-13 33 -31 44 -39 77 -58 -343 367 -490 496 -483 425 -977 722 -1467 885 -150
50 -230 60 -298 40z"/>
<path d="M5560 6249 c-102 -30 -148 -45 -245 -81 -461 -170 -994 -514 -1440
-927 -99 -93 -355 -353 -388 -396 l-31 -40 39 35 c89 82 99 89 203 158 250
167 540 299 972 442 168 56 499 151 645 185 39 9 77 18 85 20 8 2 113 24 233
49 228 48 283 68 315 113 76 107 19 304 -114 392 -82 54 -192 74 -274 50z"/>
<path d="M608 5496 c-1 -2 -77 -6 -168 -10 -180 -6 -213 -10 -280 -32 -52 -17
-92 -49 -113 -90 -42 -82 -41 -24 -42 -2183 -1 -1135 2 -2093 7 -2128 16 -135
73 -173 278 -189 36 -2 90 -6 120 -9 30 -2 93 -7 140 -10 47 -3 105 -8 130
-10 25 -3 70 -7 100 -10 30 -3 78 -7 105 -10 28 -3 75 -8 105 -11 30 -3 66 -7
80 -10 14 -2 45 -6 70 -9 85 -10 125 -16 235 -35 61 -10 126 -22 145 -25 275
-47 661 -156 931 -264 l107 -43 94 51 c241 130 508 200 778 205 58 1 88 -1
222 -18 121 -16 347 -102 483 -185 l64 -39 78 32 c108 46 361 128 524 170 120
30 430 97 514 110 17 2 59 9 95 15 62 10 114 18 170 26 94 13 127 17 255 30
33 3 78 8 100 10 37 4 75 7 240 20 33 3 103 7 155 10 202 12 269 27 313 73 36
38 47 72 53 171 9 133 8 4078 0 4146 -16 122 -72 195 -171 219 -93 23 -442 34
-670 21 -128 -7 -248 -16 -275 -20 -14 -2 -52 -6 -85 -10 -55 -6 -254 -37
-315 -50 -14 -2 -47 -9 -75 -15 -27 -6 -60 -12 -73 -15 -13 -2 -32 -7 -42 -10
-10 -3 -27 -8 -39 -10 -41 -8 -180 -49 -296 -87 -400 -133 -799 -341 -1165
-609 -30 -22 -72 -52 -94 -66 -45 -29 -54 -27 -129 31 -26 20 -51 36 -56 36
-5 0 -11 4 -13 9 -5 13 -209 151 -343 231 -171 102 -399 215 -590 291 -163 64
-452 155 -551 174 -16 2 -45 9 -64 15 -19 5 -86 19 -148 31 -114 20 -144 25
-217 35 -22 3 -49 7 -60 8 -11 2 -56 7 -100 11 -44 4 -91 8 -105 11 -14 2
-106 6 -205 10 -99 3 -185 7 -192 9 -6 2 -13 2 -15 1z m5803 -153 c1 -10 2
-37 2 -61 0 -34 3 -42 16 -38 9 3 37 7 64 11 l47 6 -5 -75 c-6 -93 -12 -135
-31 -211 -32 -130 -45 -151 -59 -97 -4 15 -6 27 -5 27 1 0 -3 12 -8 26 -6 14
-13 43 -16 65 -12 76 -8 73 -83 53 -37 -10 -68 -17 -70 -15 -2 2 -5 40 -6 84
l-2 81 -70 11 c-125 21 -242 57 -228 71 23 22 274 71 396 77 49 3 57 0 58 -15z
m-5941 -49 c90 -11 116 -16 155 -25 80 -20 137 -41 128 -49 -9 -8 -164 -46
-237 -58 l-49 -7 -3 -74 c-4 -104 -2 -102 -74 -79 -34 11 -63 18 -66 15 -3 -2
-15 -48 -28 -101 -13 -54 -28 -102 -33 -107 -9 -9 -36 58 -48 121 -3 14 -7 36
-10 50 -11 51 -14 73 -20 133 -8 74 -8 69 -6 83 1 8 18 8 57 2 31 -5 58 -7 59
-6 2 2 4 26 6 53 1 28 4 53 6 57 3 6 81 3 163 -8z m2525 -1089 c4 -44 9 -96
10 -115 8 -115 17 -220 21 -256 10 -102 38 -787 35 -864 -2 -49 0 -103 4 -110
3 -5 1 -11 -4 -14 -5 -4 -6 -19 -2 -34 5 -21 7 -567 2 -567 -2 0 -11 -329 -14
-487 -1 -49 -4 -88 -7 -88 -3 0 -5 -33 -6 -73 -1 -68 -11 -238 -20 -337 -11
-123 -24 -260 -28 -282 -4 -31 -12 -28 -12 5 0 18 -4 59 -8 92 -4 33 -9 80
-11 105 -2 25 -6 77 -10 115 -9 111 -16 204 -19 280 -2 39 -4 70 -5 70 -6 0
-22 673 -22 940 0 315 12 859 25 1080 9 151 26 380 32 435 7 55 12 111 15 158
4 64 16 37 24 -53z m810 10 c4 -44 8 -96 10 -115 23 -215 39 -494 51 -865 8
-254 8 -973 0 -1215 -10 -289 -14 -405 -16 -405 -1 0 -3 -36 -5 -80 -4 -98
-19 -291 -29 -390 -16 -141 -18 -161 -19 -173 -1 -22 -11 -3 -12 26 -2 30 -15
168 -20 222 -7 63 -16 180 -20 248 -2 37 -7 110 -10 162 -3 52 -8 156 -9 232
-2 75 -6 140 -8 145 -7 11 -1 1165 6 1373 8 229 21 467 32 580 5 56 10 109 17
190 7 73 19 152 23 148 2 -2 6 -40 9 -83z"/>
<path d="M3225 534 c-120 -19 -306 -79 -425 -135 l-104 -50 43 -24 c24 -14 45
-25 47 -25 7 0 212 -128 289 -181 165 -112 270 -137 390 -94 77 28 59 18 215
120 150 99 221 141 319 190 l74 38 -89 43 c-109 54 -222 92 -334 114 -103 21
-310 22 -425 4z"/>
</g>
</svg>
